#!OML:ASF E:\emotionWalksFemale\Project 1\Capture day 1\Session 1\Female1.ASF
:FULLY-SPECIFIED
:DEGREES
2102
root 9.34527 15.2571 -35.2617 -0.165835 -12.4128 -1.79597
lowerback 8.21609 -0.108903 4.08103
upperback -4.80877 0.481281 1.39508
thorax -9.74172 0.0157276 -0.881895
lowerneck -6.92174 5.20456 2.39678
upperneck 11.3373 7.25961 -4.10856
head 4.77546 3.42504 -1.19836
rclavicle 9.98893e-015 2.22639e-014
rhumerus -45.472 4.09375 -83.5737
rradius 32.9937
rwrist 21.2187
rhand -3.50675 -52.5202
rfingers 7.12502
rthumb 22.2276 -81.2621
lclavicle 9.98893e-015 2.22639e-014
lhumerus -45.02 9.27782 77.8445
lradius 34.9927
lwrist -11.5063
lhand 0.779498 -33.2347
lfingers 7.12502
lthumb 26.3368 -5.04332
rfemur 19.8787 13.2286 32.542
rtibia 2.64611
rfoot -13.3548 -33.5656
rtoes 3.76923
lfemur -24.6785 -17.7254 -10.4053
ltibia 28.944
lfoot -14.6363 20.0786
ltoes -7.26608
2103
root 9.38223 15.2677 -35.1783 -0.222983 -12.4357 -1.67924
lowerback 8.18856 -0.099735 4.09743
upperback -4.80495 0.493173 1.38663
thorax -9.72049 0.0204691 -0.902072
lowerneck -7.00709 5.23342 2.22889
upperneck 11.2978 7.31613 -4.11292
head 4.77369 3.44479 -1.16732
rclavicle -3.3048e-014 -3.57812e-015
rhumerus -45.5305 3.94306 -83.3278
rradius 32.745
rwrist 21.7361
rhand -3.13622 -52.6639
rfingers 7.12502
rthumb 22.5832 -81.3629
lclavicle -3.3048e-014 -3.57812e-015
lhumerus -45.1092 9.48479 77.8479
lradius 34.9602
lwrist -11.6894
lhand 1.04839 -33.3162
lfingers 7.12502
lthumb 26.5942 -5.16365
rfemur 19.5412 13.2522 32.2589
rtibia 3.93295
rfoot -14.0401 -33.6351
rtoes 4.0436
lfemur -24.377 -17.3343 -10.9568
ltibia 28.9988
lfoot -14.0794 19.8166
ltoes -9.30704
2104
root 9.41359 15.2808 -35.1119 -0.129527 -12.1834 -1.63044
lowerback 8.23552 -0.124755 4.02116
upperback -4.88157 0.454579 1.37624
thorax -9.83478 0.00367931 -0.863518
lowerneck -6.94884 5.22969 2.14564
upperneck 11.1734 7.30664 -4.03663
head 4.71943 3.44395 -1.13465
rclavicle 1.48095e-014 3.4191e-014
rhumerus -45.6767 3.82829 -83.2979
rradius 32.5441
rwrist 21.6251
rhand -4.25845 -51.9278
rfingers 7.12502
rthumb 21.5058 -80.754
lclavicle 1.48095e-014 3.4191e-014
lhumerus -45.065 9.34922 77.9355
lradius 34.8713
lwrist -11.6618
lhand 1.4615 -33.5223
lfingers 7.12502
lthumb 26.9895 -5.43024
rfemur 19.1271 13.026 32.0436
rtibia 4.98427
rfoot -14.2647 -33.5636
rtoes 3.79546
lfemur -24.3431 -16.7103 -11.386
ltibia 29.0425
lfoot -13.5637 19.1619
ltoes -11.9573
2105
root 9.45115 15.2928 -35.0354 -0.193643 -12.0385 -1.57969
lowerback 8.1844 -0.135242 4.07849
upperback -4.83831 0.43995 1.33795
thorax -9.75692 -0.00683491 -0.934497
lowerneck -6.88683 5.21222 2.08696
upperneck 11.0977 7.28341 -4.00617
head 4.68174 3.43395 -1.1203
rclavicle -1.12313e-014 -1.59028e-014
rhumerus -45.7181 3.72885 -83.2366
rradius 32.3899
rwrist 21.7102
rhand -4.6767 -51.5646
rfingers 7.12502
rthumb 21.104 -80.4361
lclavicle -1.12313e-014 -1.59028e-014
lhumerus -44.9777 9.23369 78.0126
lradius 34.8058
lwrist -11.6103
lhand 1.60937 -33.04
lfingers 7.12502
lthumb 27.1309 -4.96994
rfemur 18.8469 12.8831 31.8111
rtibia 6.13528
rfoot -13.2167 -33.5554
rtoes 0.0474054
lfemur -24.0635 -16.3447 -11.8463
ltibia 29.0296
lfoot -13.4531 18.6662
ltoes -12.4991
2106
root 9.49169 15.3032 -34.9513 -0.318874 -12.0325 -1.51854
lowerback 7.91228 0.00369074 4.27327
upperback -4.59329 0.610863 1.15852
thorax -9.31469 0.0676953 -1.2635
lowerneck -7.1282 5.08391 2.41026
upperneck 10.9507 7.08485 -4.18446
head 4.68865 3.33758 -1.23463
rclavicle -1.56543e-014 -1.63003e-014
rhumerus -45.4917 3.06177 -83.0739
rradius 32.2407
rwrist 22.0084
rhand -4.36543 -51.8228
rfingers 7.12502
rthumb 21.403 -80.6607
lclavicle -1.56543e-014 -1.63003e-014
lhumerus -44.5182 8.86568 78.1235
lradius 34.7486
lwrist -11.7514
lhand 1.33488 -32.8188
lfingers 7.12502
lthumb 26.8683 -4.70811
rfemur 18.7357 12.8714 31.5662
rtibia 7.10386
rfoot -12.1333 -33.5617
rtoes -3.27818
lfemur -23.6711 -16.1043 -12.2945
ltibia 29.0091
lfoot -13.5736 18.4041
ltoes -12.3883
2107
root 9.52779 15.3149 -34.8827 -0.211898 -11.7077 -1.55344
lowerback 8.10516 -0.0219593 4.16675
upperback -4.75813 0.590595 1.27635
thorax -9.61321 0.0614654 -1.07481
lowerneck -7.1128 5.0645 2.37613
upperneck 10.9845 7.07364 -4.25732
head 4.69758 3.3263 -1.25221
rclavicle 1.51573e-014 3.18055e-015
rhumerus -45.7827 3.1082 -82.886
rradius 32.2181
rwrist 21.7485
rhand -4.59155 -51.8261
rfingers 7.12502
rthumb 21.1858 -80.6884
lclavicle 1.51573e-014 3.18055e-015
lhumerus -44.6542 8.82144 78.3673
lradius 34.7951
lwrist -11.962
lhand 1.48908 -32.7978
lfingers 7.12502
lthumb 27.0159 -4.70992
rfemur 18.3774 12.5771 31.4059
rtibia 7.99703
rfoot -11.8139 -33.4462
rtoes -3.82154
lfemur -23.5943 -15.6819 -12.5666
ltibia 28.9389
lfoot -13.7524 17.5206
ltoes -11.2173
2108
root 9.57025 15.3277 -34.7924 -0.455629 -11.7859 -1.51287
lowerback 8.22859 0.0199822 4.23121
upperback -4.70715 0.659891 1.27239
thorax -9.62656 0.0910339 -1.12724
lowerneck -7.17918 5.08698 2.30991
upperneck 11.0795 7.10255 -4.15421
head 4.73276 3.34171 -1.20531
rclavicle 7.7526e-015 6.75868e-015
rhumerus -45.9368 3.10058 -82.7863
rradius 32.1066
rwrist 21.8435
rhand -4.41774 -52.0166
rfingers 7.12502
rthumb 21.3528 -80.8602
lclavicle 7.7526e-015 6.75868e-015
lhumerus -44.6563 8.71487 78.5169
lradius 34.7979
lwrist -11.9515
lhand 1.91314 -32.8198
lfingers 7.12502
lthumb 27.4215 -4.79539
rfemur 18.4546 12.6292 31.1925
rtibia 8.9096
rfoot -11.5054 -33.318
rtoes -4.0452
lfemur -22.8944 -15.5091 -13.0218
ltibia 28.8467
lfoot -14.5045 17.0351
ltoes -9.42062
2109
root 9.61047 15.3521 -34.7033 -0.113632 -11.83 -1.42755
lowerback 7.80223 0.0833556 4.35281
upperback -4.83255 0.728364 1.14793
thorax -9.50604 0.112226 -1.33639
lowerneck -7.39018 5.05557 2.5405
upperneck 11.2781 7.04717 -4.22609
head 4.83816 3.31396 -1.25987
rclavicle -2.63887e-014 -1.11319e-014
rhumerus -46.0376 2.82537 -82.7279
rradius 31.9884
rwrist 22.3469
rhand -3.63811 -52.4738
rfingers 7.12502
rthumb 22.1014 -81.2307
lclavicle -2.63887e-014 -1.11319e-014
lhumerus -44.7187 8.27013 78.7113
lradius 34.7916
lwrist -12.4035
lhand 0.589653 -32.9732
lfingers 7.12502
lthumb 26.155 -4.75481
rfemur 17.8812 12.7636 30.7881
rtibia 9.80538
rfoot -11.1497 -33.173
rtoes -4.03534
lfemur -22.8668 -15.3806 -13.3215
ltibia 28.7338
lfoot -15.3003 16.8932
ltoes -10.3729
2110
root 9.64962 15.3594 -34.6331 -0.331245 -11.6929 -1.46736
lowerback 8.13881 0.143376 4.36074
upperback -4.84766 0.82967 1.13812
thorax -9.7168 0.155929 -1.36996
lowerneck -7.31673 4.94281 2.74844
upperneck 11.2648 6.88465 -4.34072
head 4.82715 3.23739 -1.34152
rclavicle -2.27608e-014 -7.15625e-015
rhumerus -46.196 2.47495 -82.5357
rradius 31.9526
rwrist 22.5932
rhand -3.21351 -52.4465
rfingers 7.12502
rthumb 22.509 -81.1545
lclavicle -2.27608e-014 -7.15625e-015
lhumerus -44.9458 7.32088 79.3814
lradius 34.7328
lwrist -13.9705
lhand -3.4182 -33.4485
lfingers 7.12502
lthumb 22.3126 -4.71679
rfemur 17.8957 12.5943 30.6918
rtibia 10.6864
rfoot -10.7528 -33.0293
rtoes -4.31671
lfemur -22.317 -15.0687 -13.656
ltibia 28.6126
lfoot -15.6153 16.5724
ltoes -12.0609
2111
root 9.69357 15.3693 -34.5434 -0.419157 -11.7435 -1.50138
lowerback 8.43073 0.138606 4.34379
upperback -4.96487 0.858268 1.31209
thorax -10.022 0.170013 -1.1808
lowerneck -7.37309 4.98466 2.38435
upperneck 11.3918 6.97344 -4.20691
head 4.86161 3.27138 -1.2334
rclavicle -1.93318e-014 3.57812e-015
rhumerus -46.4388 2.85686 -82.3629
rradius 31.9623
rwrist 22.6825
rhand -3.02244 -52.4796
rfingers 7.12502
rthumb 22.6924 -81.1653
lclavicle -1.93318e-014 3.57812e-015
lhumerus -45.2881 7.35478 79.6903
lradius 35.1184
lwrist -13.4802
lhand -2.31468 -32.7899
lfingers 7.12502
lthumb 23.3715 -4.18888
rfemur 17.7327 12.4237 30.4434
rtibia 11.6792
rfoot -10.1377 -32.686
rtoes -5.47943
lfemur -21.7663 -14.8854 -13.9742
ltibia 28.4085
lfoot -15.917 16.3375
ltoes -12.1765
